<svg xmlns="http://www.w3.org/2000/svg" width="1000" height="250" viewBox="0 0 1000 250" role="img" aria-label="Douglas Padilla. Backend Developer. Odoo, Python and PostgreSQL. Santa Cruz de la Sierra, Bolivia. Open to remote roles.">
<defs></defs>
<rect width="1000" height="250" rx="24" fill="#10261e"/>
<circle cx="520" cy="20" r="1.2" fill="#2c4f41"/><circle cx="520" cy="44" r="1.2" fill="#2c4f41"/><circle cx="520" cy="68" r="1.2" fill="#2c4f41"/><circle cx="520" cy="92" r="1.2" fill="#2c4f41"/><circle cx="520" cy="116" r="1.2" fill="#2c4f41"/><circle cx="520" cy="140" r="1.2" fill="#2c4f41"/><circle cx="520" cy="164" r="1.2" fill="#2c4f41"/><circle cx="520" cy="188" r="1.2" fill="#2c4f41"/><circle cx="520" cy="212" r="1.2" fill="#2c4f41"/><circle cx="520" cy="236" r="1.2" fill="#2c4f41"/><circle cx="544" cy="20" r="1.2" fill="#2c4f41"/><circle cx="544" cy="44" r="1.2" fill="#2c4f41"/><circle cx="544" cy="68" r="1.2" fill="#2c4f41"/><circle cx="544" cy="92" r="1.2" fill="#2c4f41"/><circle cx="544" cy="116" r="1.2" fill="#2c4f41"/><circle cx="544" cy="140" r="1.2" fill="#2c4f41"/><circle cx="544" cy="164" r="1.2" fill="#2c4f41"/><circle cx="544" cy="188" r="1.2" fill="#2c4f41"/><circle cx="544" cy="212" r="1.2" fill="#2c4f41"/><circle cx="544" cy="236" r="1.2" fill="#2c4f41"/><circle cx="568" cy="20" r="1.2" fill="#2c4f41"/><circle cx="568" cy="44" r="1.2" fill="#2c4f41"/><circle cx="568" cy="68" r="1.2" fill="#2c4f41"/><circle cx="568" cy="92" r="1.2" fill="#2c4f41"/><circle cx="568" cy="116" r="1.2" fill="#2c4f41"/><circle cx="568" cy="140" r="1.2" fill="#2c4f41"/><circle cx="568" cy="164" r="1.2" fill="#2c4f41"/><circle cx="568" cy="188" r="1.2" fill="#2c4f41"/><circle cx="568" cy="212" r="1.2" fill="#2c4f41"/><circle cx="568" cy="236" r="1.2" fill="#2c4f41"/><circle cx="592" cy="20" r="1.2" fill="#2c4f41"/><circle cx="592" cy="44" r="1.2" fill="#2c4f41"/><circle cx="592" cy="68" r="1.2" fill="#2c4f41"/><circle cx="592" cy="92" r="1.2" fill="#2c4f41"/><circle cx="592" cy="116" r="1.2" fill="#2c4f41"/><circle cx="592" cy="140" r="1.2" fill="#2c4f41"/><circle cx="592" cy="164" r="1.2" fill="#2c4f41"/><circle cx="592" cy="188" r="1.2" fill="#2c4f41"/><circle cx="592" cy="212" r="1.2" fill="#2c4f41"/><circle cx="592" cy="236" r="1.2" fill="#2c4f41"/><circle cx="616" cy="20" r="1.2" fill="#2c4f41"/><circle cx="616" cy="44" r="1.2" fill="#2c4f41"/><circle cx="616" cy="68" r="1.2" fill="#2c4f41"/><circle cx="616" cy="92" r="1.2" fill="#2c4f41"/><circle cx="616" cy="116" r="1.2" fill="#2c4f41"/><circle cx="616" cy="140" r="1.2" fill="#2c4f41"/><circle cx="616" cy="164" r="1.2" fill="#2c4f41"/><circle cx="616" cy="188" r="1.2" fill="#2c4f41"/><circle cx="616" cy="212" r="1.2" fill="#2c4f41"/><circle cx="616" cy="236" r="1.2" fill="#2c4f41"/><circle cx="640" cy="20" r="1.2" fill="#2c4f41"/><circle cx="640" cy="44" r="1.2" fill="#2c4f41"/><circle cx="640" cy="68" r="1.2" fill="#2c4f41"/><circle cx="640" cy="92" r="1.2" fill="#2c4f41"/><circle cx="640" cy="116" r="1.2" fill="#2c4f41"/><circle cx="640" cy="140" r="1.2" fill="#2c4f41"/><circle cx="640" cy="164" r="1.2" fill="#2c4f41"/><circle cx="640" cy="188" r="1.2" fill="#2c4f41"/><circle cx="640" cy="212" r="1.2" fill="#2c4f41"/><circle cx="640" cy="236" r="1.2" fill="#2c4f41"/><circle cx="664" cy="20" r="1.2" fill="#2c4f41"/><circle cx="664" cy="44" r="1.2" fill="#2c4f41"/><circle cx="664" cy="68" r="1.2" fill="#2c4f41"/><circle cx="664" cy="92" r="1.2" fill="#2c4f41"/><circle cx="664" cy="116" r="1.2" fill="#2c4f41"/><circle cx="664" cy="140" r="1.2" fill="#2c4f41"/><circle cx="664" cy="164" r="1.2" fill="#2c4f41"/><circle cx="664" cy="188" r="1.2" fill="#2c4f41"/><circle cx="664" cy="212" r="1.2" fill="#2c4f41"/><circle cx="664" cy="236" r="1.2" fill="#2c4f41"/><circle cx="688" cy="20" r="1.2" fill="#2c4f41"/><circle cx="688" cy="44" r="1.2" fill="#2c4f41"/><circle cx="688" cy="68" r="1.2" fill="#2c4f41"/><circle cx="688" cy="92" r="1.2" fill="#2c4f41"/><circle cx="688" cy="116" r="1.2" fill="#2c4f41"/><circle cx="688" cy="140" r="1.2" fill="#2c4f41"/><circle cx="688" cy="164" r="1.2" fill="#2c4f41"/><circle cx="688" cy="188" r="1.2" fill="#2c4f41"/><circle cx="688" cy="212" r="1.2" fill="#2c4f41"/><circle cx="688" cy="236" r="1.2" fill="#2c4f41"/><circle cx="712" cy="20" r="1.2" fill="#2c4f41"/><circle cx="712" cy="44" r="1.2" fill="#2c4f41"/><circle cx="712" cy="68" r="1.2" fill="#2c4f41"/><circle cx="712" cy="92" r="1.2" fill="#2c4f41"/><circle cx="712" cy="116" r="1.2" fill="#2c4f41"/><circle cx="712" cy="140" r="1.2" fill="#2c4f41"/><circle cx="712" cy="164" r="1.2" fill="#2c4f41"/><circle cx="712" cy="188" r="1.2" fill="#2c4f41"/><circle cx="712" cy="212" r="1.2" fill="#2c4f41"/><circle cx="712" cy="236" r="1.2" fill="#2c4f41"/><circle cx="736" cy="20" r="1.2" fill="#2c4f41"/><circle cx="736" cy="44" r="1.2" fill="#2c4f41"/><circle cx="736" cy="68" r="1.2" fill="#2c4f41"/><circle cx="736" cy="92" r="1.2" fill="#2c4f41"/><circle cx="736" cy="116" r="1.2" fill="#2c4f41"/><circle cx="736" cy="140" r="1.2" fill="#2c4f41"/><circle cx="736" cy="164" r="1.2" fill="#2c4f41"/><circle cx="736" cy="188" r="1.2" fill="#2c4f41"/><circle cx="736" cy="212" r="1.2" fill="#2c4f41"/><circle cx="736" cy="236" r="1.2" fill="#2c4f41"/><circle cx="760" cy="20" r="1.2" fill="#2c4f41"/><circle cx="760" cy="44" r="1.2" fill="#2c4f41"/><circle cx="760" cy="68" r="1.2" fill="#2c4f41"/><circle cx="760" cy="92" r="1.2" fill="#2c4f41"/><circle cx="760" cy="116" r="1.2" fill="#2c4f41"/><circle cx="760" cy="140" r="1.2" fill="#2c4f41"/><circle cx="760" cy="164" r="1.2" fill="#2c4f41"/><circle cx="760" cy="188" r="1.2" fill="#2c4f41"/><circle cx="760" cy="212" r="1.2" fill="#2c4f41"/><circle cx="760" cy="236" r="1.2" fill="#2c4f41"/><circle cx="784" cy="20" r="1.2" fill="#2c4f41"/><circle cx="784" cy="44" r="1.2" fill="#2c4f41"/><circle cx="784" cy="68" r="1.2" fill="#2c4f41"/><circle cx="784" cy="92" r="1.2" fill="#2c4f41"/><circle cx="784" cy="116" r="1.2" fill="#2c4f41"/><circle cx="784" cy="140" r="1.2" fill="#2c4f41"/><circle cx="784" cy="164" r="1.2" fill="#2c4f41"/><circle cx="784" cy="188" r="1.2" fill="#2c4f41"/><circle cx="784" cy="212" r="1.2" fill="#2c4f41"/><circle cx="784" cy="236" r="1.2" fill="#2c4f41"/><circle cx="808" cy="20" r="1.2" fill="#2c4f41"/><circle cx="808" cy="44" r="1.2" fill="#2c4f41"/><circle cx="808" cy="68" r="1.2" fill="#2c4f41"/><circle cx="808" cy="92" r="1.2" fill="#2c4f41"/><circle cx="808" cy="116" r="1.2" fill="#2c4f41"/><circle cx="808" cy="140" r="1.2" fill="#2c4f41"/><circle cx="808" cy="164" r="1.2" fill="#2c4f41"/><circle cx="808" cy="188" r="1.2" fill="#2c4f41"/><circle cx="808" cy="212" r="1.2" fill="#2c4f41"/><circle cx="808" cy="236" r="1.2" fill="#2c4f41"/><circle cx="832" cy="20" r="1.2" fill="#2c4f41"/><circle cx="832" cy="44" r="1.2" fill="#2c4f41"/><circle cx="832" cy="68" r="1.2" fill="#2c4f41"/><circle cx="832" cy="92" r="1.2" fill="#2c4f41"/><circle cx="832" cy="116" r="1.2" fill="#2c4f41"/><circle cx="832" cy="140" r="1.2" fill="#2c4f41"/><circle cx="832" cy="164" r="1.2" fill="#2c4f41"/><circle cx="832" cy="188" r="1.2" fill="#2c4f41"/><circle cx="832" cy="212" r="1.2" fill="#2c4f41"/><circle cx="832" cy="236" r="1.2" fill="#2c4f41"/><circle cx="856" cy="20" r="1.2" fill="#2c4f41"/><circle cx="856" cy="44" r="1.2" fill="#2c4f41"/><circle cx="856" cy="68" r="1.2" fill="#2c4f41"/><circle cx="856" cy="92" r="1.2" fill="#2c4f41"/><circle cx="856" cy="116" r="1.2" fill="#2c4f41"/><circle cx="856" cy="140" r="1.2" fill="#2c4f41"/><circle cx="856" cy="164" r="1.2" fill="#2c4f41"/><circle cx="856" cy="188" r="1.2" fill="#2c4f41"/><circle cx="856" cy="212" r="1.2" fill="#2c4f41"/><circle cx="856" cy="236" r="1.2" fill="#2c4f41"/><circle cx="880" cy="20" r="1.2" fill="#2c4f41"/><circle cx="880" cy="44" r="1.2" fill="#2c4f41"/><circle cx="880" cy="68" r="1.2" fill="#2c4f41"/><circle cx="880" cy="92" r="1.2" fill="#2c4f41"/><circle cx="880" cy="116" r="1.2" fill="#2c4f41"/><circle cx="880" cy="140" r="1.2" fill="#2c4f41"/><circle cx="880" cy="164" r="1.2" fill="#2c4f41"/><circle cx="880" cy="188" r="1.2" fill="#2c4f41"/><circle cx="880" cy="212" r="1.2" fill="#2c4f41"/><circle cx="880" cy="236" r="1.2" fill="#2c4f41"/><circle cx="904" cy="20" r="1.2" fill="#2c4f41"/><circle cx="904" cy="44" r="1.2" fill="#2c4f41"/><circle cx="904" cy="68" r="1.2" fill="#2c4f41"/><circle cx="904" cy="92" r="1.2" fill="#2c4f41"/><circle cx="904" cy="116" r="1.2" fill="#2c4f41"/><circle cx="904" cy="140" r="1.2" fill="#2c4f41"/><circle cx="904" cy="164" r="1.2" fill="#2c4f41"/><circle cx="904" cy="188" r="1.2" fill="#2c4f41"/><circle cx="904" cy="212" r="1.2" fill="#2c4f41"/><circle cx="904" cy="236" r="1.2" fill="#2c4f41"/><circle cx="928" cy="20" r="1.2" fill="#2c4f41"/><circle cx="928" cy="44" r="1.2" fill="#2c4f41"/><circle cx="928" cy="68" r="1.2" fill="#2c4f41"/><circle cx="928" cy="92" r="1.2" fill="#2c4f41"/><circle cx="928" cy="116" r="1.2" fill="#2c4f41"/><circle cx="928" cy="140" r="1.2" fill="#2c4f41"/><circle cx="928" cy="164" r="1.2" fill="#2c4f41"/><circle cx="928" cy="188" r="1.2" fill="#2c4f41"/><circle cx="928" cy="212" r="1.2" fill="#2c4f41"/><circle cx="928" cy="236" r="1.2" fill="#2c4f41"/><circle cx="952" cy="20" r="1.2" fill="#2c4f41"/><circle cx="952" cy="44" r="1.2" fill="#2c4f41"/><circle cx="952" cy="68" r="1.2" fill="#2c4f41"/><circle cx="952" cy="92" r="1.2" fill="#2c4f41"/><circle cx="952" cy="116" r="1.2" fill="#2c4f41"/><circle cx="952" cy="140" r="1.2" fill="#2c4f41"/><circle cx="952" cy="164" r="1.2" fill="#2c4f41"/><circle cx="952" cy="188" r="1.2" fill="#2c4f41"/><circle cx="952" cy="212" r="1.2" fill="#2c4f41"/><circle cx="952" cy="236" r="1.2" fill="#2c4f41"/><circle cx="976" cy="20" r="1.2" fill="#2c4f41"/><circle cx="976" cy="44" r="1.2" fill="#2c4f41"/><circle cx="976" cy="68" r="1.2" fill="#2c4f41"/><circle cx="976" cy="92" r="1.2" fill="#2c4f41"/><circle cx="976" cy="116" r="1.2" fill="#2c4f41"/><circle cx="976" cy="140" r="1.2" fill="#2c4f41"/><circle cx="976" cy="164" r="1.2" fill="#2c4f41"/><circle cx="976" cy="188" r="1.2" fill="#2c4f41"/><circle cx="976" cy="212" r="1.2" fill="#2c4f41"/><circle cx="976" cy="236" r="1.2" fill="#2c4f41"/><path d="M 560 190 C 640 190, 660 110, 740 110 L 860 110 C 900 110, 910 60, 960 60" fill="none" stroke="#2c4f41" stroke-width="2" stroke-dasharray="6 6"><animate attributeName="stroke-dashoffset" from="24" to="0" dur="1.2s" repeatCount="indefinite"/></path><circle r="5" fill="#c8f169" opacity="0"><animateMotion dur="3.2s" begin="0s" repeatCount="indefinite" path="M 560 190 C 640 190, 660 110, 740 110 L 860 110 C 900 110, 910 60, 960 60"/><animate attributeName="opacity" values="0;1;1;0" keyTimes="0;0.08;0.92;1" dur="3.2s" begin="0s" repeatCount="indefinite"/></circle><circle r="4" fill="#7cc4ff" opacity="0"><animateMotion dur="3.2s" begin="-1.6s" repeatCount="indefinite" path="M 560 190 C 640 190, 660 110, 740 110 L 860 110 C 900 110, 910 60, 960 60"/><animate attributeName="opacity" values="0;1;1;0" keyTimes="0;0.08;0.92;1" dur="3.2s" begin="-1.6s" repeatCount="indefinite"/></circle><text x="48" y="96" font-family="-apple-system, BlinkMacSystemFont, 'Segoe UI', Helvetica, Arial, sans-serif" font-size="48" font-weight="800" fill="#f5f4ee" text-anchor="start">Douglas Padilla</text><text x="50" y="136" font-family="-apple-system, BlinkMacSystemFont, 'Segoe UI', Helvetica, Arial, sans-serif" font-size="22" font-weight="700" fill="#c8f169" text-anchor="start">Backend Developer</text><text x="50" y="166" font-family="ui-monospace, SFMono-Regular, Menlo, Consolas, 'Liberation Mono', monospace" font-size="15" font-weight="400" fill="#9fb3a8" text-anchor="start">Odoo · Python · PostgreSQL</text><text x="50" y="206" font-family="-apple-system, BlinkMacSystemFont, 'Segoe UI', Helvetica, Arial, sans-serif" font-size="14" font-weight="400" fill="#9fb3a8" text-anchor="start">Santa Cruz de la Sierra, Bolivia</text><rect x="760" y="170" width="200" height="36" rx="18" fill="#1d3a2f" stroke="#2c4f41"/><circle cx="782" cy="188" r="5" fill="#c8f169"/><circle cx="782" cy="188" r="5" fill="none" stroke="#c8f169" stroke-width="2"><animate attributeName="r" values="5;12" dur="2s" begin="0s" repeatCount="indefinite"/><animate attributeName="opacity" values="0.9;0" dur="2s" begin="0s" repeatCount="indefinite"/></circle><text x="798" y="193" font-family="-apple-system, BlinkMacSystemFont, 'Segoe UI', Helvetica, Arial, sans-serif" font-size="13" font-weight="600" fill="#f5f4ee" text-anchor="start">Open to remote roles</text>
</svg>
